<svg xmlns="http://www.w3.org/2000/svg" width="445.985" height="93" viewBox="0 0 445.985 93">
  <g id="Group_1" data-name="Group 1" transform="translate(-73 -433)">
    <rect id="Rectangle_1" data-name="Rectangle 1" width="31" height="31" transform="translate(73 464)" fill="#53dbff"/>
    <rect id="Rectangle_6" data-name="Rectangle 6" width="31" height="31" transform="translate(135 464)" fill="#2466fd"/>
    <rect id="Rectangle_2" data-name="Rectangle 2" width="31" height="31" transform="translate(73 495)" fill="#3ba0f9"/>
    <rect id="Rectangle_5" data-name="Rectangle 5" width="31" height="31" transform="translate(135 433)" fill="#3ba0f9"/>
    <rect id="Rectangle_3" data-name="Rectangle 3" width="31" height="31" transform="translate(104 495)" fill="#2466fd"/>
    <rect id="Rectangle_4" data-name="Rectangle 4" width="31" height="31" transform="translate(104 433)" fill="#53dbff"/>
    <path id="Path_1" data-name="Path 1" d="M4.68-46.54h8.775V-8.32H33.15V0H4.68ZM57.98-3.38h-.52A14.364,14.364,0,0,1,53.853-.26a10.219,10.219,0,0,1-5.428,1.3A13.186,13.186,0,0,1,43.778.228a12.089,12.089,0,0,1-3.8-2.242A10.029,10.029,0,0,1,37.44-5.46a10.614,10.614,0,0,1-.91-4.42,9.954,9.954,0,0,1,.975-4.453,10.126,10.126,0,0,1,2.73-3.413,12.315,12.315,0,0,1,4.127-2.177,17.118,17.118,0,0,1,5.167-.748,22.4,22.4,0,0,1,5.135.488,24.9,24.9,0,0,1,3.315,1.007v-.975a5.2,5.2,0,0,0-2.015-4.193,7.618,7.618,0,0,0-5-1.657,9.35,9.35,0,0,0-7.475,3.7L37.31-26.52q5.07-6.37,13.845-6.37,7.41,0,11.31,3.478t3.9,10.3V0H57.98Zm0-9.555a17.6,17.6,0,0,0-3.088-1.137,13.535,13.535,0,0,0-3.477-.422A7.352,7.352,0,0,0,46.7-13.163,4.063,4.063,0,0,0,45.045-9.88a3.682,3.682,0,0,0,1.593,3.12A6.039,6.039,0,0,0,50.31-5.59a7.786,7.786,0,0,0,3.12-.617,7.744,7.744,0,0,0,2.438-1.625,7.146,7.146,0,0,0,1.56-2.34A7.145,7.145,0,0,0,57.98-12.935ZM81.12-27.69h.52a10.792,10.792,0,0,1,4.03-3.8,11.783,11.783,0,0,1,5.785-1.4,13.27,13.27,0,0,1,5.265.975,9.643,9.643,0,0,1,3.738,2.762,12.2,12.2,0,0,1,2.21,4.29,19.375,19.375,0,0,1,.747,5.557V0H94.9V-18.265q0-3.445-1.528-5.1a5.755,5.755,0,0,0-4.452-1.657,6.2,6.2,0,0,0-3.087.747,7.209,7.209,0,0,0-2.275,2.015,9.118,9.118,0,0,0-1.43,2.99A13.43,13.43,0,0,0,81.64-15.6V0H73.125V-31.85h8ZM134.16-3.835h-.52A9.663,9.663,0,0,1,130-.39a12.027,12.027,0,0,1-6.11,1.43,13.79,13.79,0,0,1-5.818-1.268,15.554,15.554,0,0,1-4.875-3.51A16.67,16.67,0,0,1,109.85-9.1a18.383,18.383,0,0,1-1.235-6.825,18.383,18.383,0,0,1,1.235-6.825,16.67,16.67,0,0,1,3.347-5.363,15.554,15.554,0,0,1,4.875-3.51,13.79,13.79,0,0,1,5.818-1.267A12.027,12.027,0,0,1,130-31.46a9.663,9.663,0,0,1,3.64,3.445h.52l-.52-4.55V-46.54h8.515V0H134.16Zm-8.515-2.99a8.5,8.5,0,0,0,3.218-.618,8.039,8.039,0,0,0,2.7-1.788,8.885,8.885,0,0,0,1.885-2.86,9.76,9.76,0,0,0,.715-3.835,9.76,9.76,0,0,0-.715-3.835,8.885,8.885,0,0,0-1.885-2.86,8.039,8.039,0,0,0-2.7-1.788,8.5,8.5,0,0,0-3.218-.618,8.133,8.133,0,0,0-3.217.65,8.469,8.469,0,0,0-2.7,1.82,8.884,8.884,0,0,0-1.885,2.86,9.585,9.585,0,0,0-.715,3.77,9.585,9.585,0,0,0,.715,3.77A8.884,8.884,0,0,0,119.73-9.3a8.469,8.469,0,0,0,2.7,1.82A8.133,8.133,0,0,0,125.645-6.825Zm43.1,3.445h-.52a14.364,14.364,0,0,1-3.607,3.12,10.219,10.219,0,0,1-5.428,1.3,13.186,13.186,0,0,1-4.647-.813,12.089,12.089,0,0,1-3.8-2.242A10.03,10.03,0,0,1,148.2-5.46a10.614,10.614,0,0,1-.91-4.42,9.954,9.954,0,0,1,.975-4.453,10.126,10.126,0,0,1,2.73-3.413,12.315,12.315,0,0,1,4.128-2.177,17.118,17.118,0,0,1,5.168-.748,22.4,22.4,0,0,1,5.135.488,24.9,24.9,0,0,1,3.315,1.007v-.975a5.2,5.2,0,0,0-2.015-4.193A7.618,7.618,0,0,0,161.72-26a9.35,9.35,0,0,0-7.475,3.7L148.07-26.52q5.07-6.37,13.845-6.37,7.41,0,11.31,3.478t3.9,10.3V0H168.74Zm0-9.555a17.6,17.6,0,0,0-3.088-1.137,13.535,13.535,0,0,0-3.477-.422,7.353,7.353,0,0,0-4.713,1.332,4.063,4.063,0,0,0-1.657,3.283A3.682,3.682,0,0,0,157.4-6.76a6.039,6.039,0,0,0,3.673,1.17,7.786,7.786,0,0,0,3.12-.617,7.744,7.744,0,0,0,2.438-1.625,7.146,7.146,0,0,0,1.56-2.34A7.145,7.145,0,0,0,168.74-12.935ZM203.19-3.38h-.52a14.364,14.364,0,0,1-3.607,3.12,10.219,10.219,0,0,1-5.428,1.3,13.186,13.186,0,0,1-4.647-.813,12.089,12.089,0,0,1-3.8-2.242A10.03,10.03,0,0,1,182.65-5.46a10.614,10.614,0,0,1-.91-4.42,9.954,9.954,0,0,1,.975-4.453,10.126,10.126,0,0,1,2.73-3.413,12.315,12.315,0,0,1,4.128-2.177,17.118,17.118,0,0,1,5.167-.748,22.4,22.4,0,0,1,5.135.488,24.9,24.9,0,0,1,3.315,1.007v-.975a5.2,5.2,0,0,0-2.015-4.193A7.618,7.618,0,0,0,196.17-26a9.35,9.35,0,0,0-7.475,3.7L182.52-26.52q5.07-6.37,13.845-6.37,7.41,0,11.31,3.478t3.9,10.3V0H203.19Zm0-9.555a17.6,17.6,0,0,0-3.088-1.137,13.535,13.535,0,0,0-3.477-.422,7.353,7.353,0,0,0-4.713,1.332,4.063,4.063,0,0,0-1.657,3.283,3.682,3.682,0,0,0,1.592,3.12,6.039,6.039,0,0,0,3.673,1.17,7.786,7.786,0,0,0,3.12-.617,7.744,7.744,0,0,0,2.438-1.625,7.146,7.146,0,0,0,1.56-2.34A7.145,7.145,0,0,0,203.19-12.935ZM233.675,0V-46.54h16.38a17.713,17.713,0,0,1,6.207,1.072,15.314,15.314,0,0,1,5.038,3.023,14.191,14.191,0,0,1,3.38,4.647,14.118,14.118,0,0,1,1.235,5.948,14.276,14.276,0,0,1-1.235,6.013,14.192,14.192,0,0,1-3.38,4.647,15.314,15.314,0,0,1-5.038,3.023,17.713,17.713,0,0,1-6.207,1.072h-7.6V0Zm16.51-25.415a6.639,6.639,0,0,0,5.2-1.95,6.508,6.508,0,0,0,1.755-4.485,7.03,7.03,0,0,0-.422-2.405,5.505,5.505,0,0,0-1.3-2.047,6.387,6.387,0,0,0-2.178-1.4,8.2,8.2,0,0,0-3.055-.52H242.45v12.805ZM289.445-3.38h-.52a14.364,14.364,0,0,1-3.608,3.12,10.219,10.219,0,0,1-5.427,1.3,13.186,13.186,0,0,1-4.647-.813,12.089,12.089,0,0,1-3.8-2.242A10.029,10.029,0,0,1,268.9-5.46a10.614,10.614,0,0,1-.91-4.42,9.954,9.954,0,0,1,.975-4.453,10.126,10.126,0,0,1,2.73-3.413,12.315,12.315,0,0,1,4.128-2.177,17.118,17.118,0,0,1,5.168-.748,22.4,22.4,0,0,1,5.135.488,24.9,24.9,0,0,1,3.315,1.007v-.975a5.2,5.2,0,0,0-2.015-4.193A7.618,7.618,0,0,0,282.425-26a9.35,9.35,0,0,0-7.475,3.7l-6.175-4.225q5.07-6.37,13.845-6.37,7.41,0,11.31,3.478t3.9,10.3V0h-8.385Zm0-9.555a17.6,17.6,0,0,0-3.087-1.137,13.535,13.535,0,0,0-3.478-.422,7.353,7.353,0,0,0-4.712,1.332A4.063,4.063,0,0,0,276.51-9.88,3.682,3.682,0,0,0,278.1-6.76a6.039,6.039,0,0,0,3.673,1.17,7.786,7.786,0,0,0,3.12-.617,7.744,7.744,0,0,0,2.438-1.625,7.146,7.146,0,0,0,1.56-2.34A7.145,7.145,0,0,0,289.445-12.935ZM313.95-1.56,300.56-31.85h9.685l8.06,19.305h.455l7.735-19.305h9.49L316.03,14.04h-9.165Z" transform="translate(183 503)" fill="#040420"/>
  </g>
</svg>
